<?xml version="1.0" standalone="no"?>
<!DOCTYPE svg PUBLIC "-//W3C//DTD SVG 20010904//EN"
 "http://www.w3.org/TR/2001/REC-SVG-20010904/DTD/svg10.dtd">
<svg version="1.0" xmlns="http://www.w3.org/2000/svg"
 width="300.000000pt" height="300.000000pt" viewBox="0 0 300.000000 300.000000"
 preserveAspectRatio="xMidYMid meet">
<metadata>
Created by potrace 1.10, written by Peter Selinger 2001-2011
</metadata>
<g transform="translate(0.000000,300.000000) scale(0.100000,-0.100000)"
fill="#000000" stroke="none">
<path d="M1285 2836 c-49 -13 -125 -43 -167 -67 -89 -49 -244 -188 -314 -283
l-45 -61 47 55 c26 30 90 96 142 147 112 110 205 162 349 199 109 27 160 29
253 10 36 -8 66 -13 68 -11 10 9 -77 27 -153 31 -74 4 -106 0 -180 -20z"/>
<path d="M1620 2810 c-15 -5 29 -7 105 -6 l130 1 110 -54 c92 -45 123 -67 194
-135 93 -91 151 -169 182 -248 22 -57 35 -77 27 -41 -9 33 15 18 40 -25 20
-36 53 -139 55 -174 1 -9 4 -15 8 -12 19 12 84 -246 99 -391 6 -60 15 -143 20
-183 6 -40 12 -166 15 -280 4 -195 3 -203 -9 -137 -28 143 -61 347 -75 470 -5
43 -9 56 -10 33 0 -20 8 -108 20 -195 31 -232 15 -483 -41 -648 -21 -62 -20
-58 5 90 19 116 28 228 17 221 -5 -3 -12 -49 -14 -103 -5 -82 -13 -121 -52
-236 -54 -161 -90 -222 -195 -331 -65 -67 -165 -146 -186 -146 -4 0 17 26 45
57 65 72 118 179 175 355 45 137 86 337 84 406 -1 27 -3 30 -6 13 -4 -19 -7
-21 -14 -10 -6 9 -9 -7 -9 -47 0 -123 -53 -330 -115 -454 -42 -83 -115 -181
-169 -225 -57 -46 -65 -44 -23 6 81 94 181 346 216 542 12 65 35 157 52 205
17 48 39 113 48 144 9 31 19 59 22 63 4 3 14 -36 24 -87 22 -116 32 -334 16
-380 -9 -28 -9 -30 3 -16 7 10 21 55 31 100 23 106 26 402 6 605 -13 131 -13
144 2 161 9 10 17 26 17 34 0 9 8 30 17 46 17 29 17 31 -1 51 -11 12 -27 21
-37 21 -11 0 -17 7 -17 18 1 9 -2 38 -7 65 -8 54 6 64 25 17 7 -17 15 -28 18
-25 3 2 -2 22 -11 42 -81 188 -127 305 -122 312 12 20 -88 134 -169 193 -23
17 -19 8 21 -43 65 -83 106 -157 143 -258 34 -92 36 -111 16 -111 -10 0 -17
16 -21 48 -4 26 -15 58 -25 72 -9 14 -27 44 -39 67 -30 59 -41 62 -41 11 0
-30 3 -39 9 -29 8 12 13 11 30 -10 16 -20 17 -26 6 -39 -8 -8 -18 -28 -24 -43
-15 -39 -31 -30 -63 36 -15 31 -30 57 -33 57 -3 0 3 -17 14 -37 25 -50 34 -83
24 -83 -5 0 -26 38 -47 85 -21 47 -40 84 -43 82 -2 -2 10 -33 27 -68 16 -35
30 -73 30 -84 -1 -11 -11 7 -24 41 -13 33 -33 79 -45 102 -23 46 -26 56 -11
47 6 -4 5 4 -1 19 -7 14 -16 23 -22 19 -6 -3 -7 -1 -3 5 4 7 -7 32 -24 57 -17
25 -33 54 -35 64 -6 33 -32 75 -65 106 -17 17 -38 42 -46 58 -8 15 -21 27 -29
27 -8 0 -15 3 -15 8 0 4 -25 22 -56 41 -68 40 -91 39 -187 -14 -50 -28 -67
-42 -67 -58 0 -12 -4 -29 -9 -36 -8 -12 -11 -9 -16 11 -8 31 12 72 58 122 19
20 29 36 23 36 -11 0 -61 -56 -83 -94 -7 -12 -12 -36 -13 -54 0 -32 0 -32 -25
-16 -21 14 -23 19 -13 32 11 13 10 14 -7 5 -11 -6 -40 -13 -64 -17 -137 -21
-372 -234 -494 -446 -66 -116 -153 -351 -177 -478 -18 -98 -29 -293 -20 -377
5 -44 14 -148 20 -231 6 -83 15 -171 20 -195 16 -77 2 237 -15 336 -41 246 3
535 125 807 70 158 142 267 253 384 83 87 112 110 179 144 60 30 92 40 127 40
64 0 80 -18 38 -40 -28 -15 -34 -25 -44 -79 -7 -34 -20 -76 -29 -93 -21 -41
-92 -232 -105 -283 -6 -22 -21 -89 -34 -150 -48 -226 -58 -265 -67 -265 -12 0
-10 18 17 146 14 64 24 122 22 128 -5 14 -46 -160 -54 -226 -5 -40 -10 -51
-30 -59 -13 -5 -29 -9 -35 -9 -20 0 11 250 38 302 8 15 10 28 5 28 -30 0 -128
-347 -150 -532 -4 -31 -4 -55 1 -52 4 3 8 16 8 30 0 56 76 361 87 350 2 -2 -1
-32 -7 -67 -13 -71 -13 -153 0 -214 6 -33 8 -23 9 51 1 86 2 92 24 98 38 10
39 8 34 -51 l-5 -58 11 59 c7 33 18 61 26 64 10 3 11 -2 6 -19 -4 -13 -11 -57
-14 -98 l-6 -75 -35 -9 c-80 -21 -98 -35 -173 -141 -19 -27 -102 -15 -119 17
-7 13 -13 81 -16 162 -3 116 1 167 22 295 14 85 24 156 22 158 -2 1 -6 -10
-10 -25 -3 -15 -15 -62 -25 -103 -58 -227 -86 -559 -61 -715 10 -64 80 -245
80 -209 0 12 -15 53 -32 90 l-33 69 -3 185 c-4 195 9 288 22 175 4 -33 16 -86
27 -117 12 -35 21 -100 25 -165 7 -130 36 -343 70 -513 31 -151 49 -218 80
-288 l23 -53 -29 21 c-36 25 -107 106 -126 141 -14 28 -54 165 -54 186 0 25
16 12 38 -29 13 -24 20 -34 16 -23 -4 11 -23 73 -43 138 -20 65 -37 113 -39
107 -2 -6 1 -66 8 -133 12 -130 37 -218 96 -342 18 -38 31 -71 28 -74 -10 -10
-94 85 -122 138 -87 165 -130 459 -134 921 l-2 255 -6 -185 c-7 -252 12 -736
29 -725 5 2 14 -21 21 -53 7 -31 20 -77 30 -102 33 -84 33 -86 -3 -47 -70 77
-126 207 -153 361 -19 107 -32 435 -22 556 13 155 69 417 87 405 4 -2 13 28
20 67 7 39 22 96 32 126 11 30 17 57 15 59 -5 6 -63 -138 -71 -177 -3 -19 -15
-62 -25 -95 -35 -111 -71 -325 -81 -483 -18 -283 -22 -523 -10 -631 6 -57 9
-106 7 -108 -13 -14 -52 85 -74 190 -23 109 -25 145 -26 337 0 129 5 245 13
290 15 93 64 282 86 334 9 21 14 40 12 43 -7 6 -42 -89 -73 -199 -14 -51 -39
-131 -55 -178 -78 -232 -124 -595 -90 -707 12 -41 6 -42 -14 -3 -19 37 -45
159 -45 213 0 59 38 210 108 427 33 102 71 226 85 275 73 257 89 308 120 395
l35 95 43 3 c25 2 67 16 99 34 30 17 69 38 85 46 17 8 51 45 78 81 l47 66 -62
-66 c-71 -74 -171 -135 -236 -144 -23 -2 -42 -1 -42 3 0 7 54 103 102 180 11
17 17 32 15 32 -8 0 -106 -155 -117 -185 -12 -31 -39 -32 -115 -6 -74 26 -111
54 -131 101 -10 22 -19 38 -21 36 -8 -8 26 -72 50 -94 13 -13 51 -35 83 -48
l59 -25 -60 6 c-101 10 -145 49 -145 130 0 42 51 203 77 243 8 13 12 26 9 29
-8 8 -66 -120 -82 -182 -46 -168 18 -241 207 -237 l46 1 -28 -73 c-16 -40 -42
-122 -59 -182 -50 -175 -108 -367 -166 -545 -96 -296 -110 -393 -79 -528 17
-72 51 -135 67 -125 6 4 8 3 5 -3 -3 -5 20 -38 52 -72 52 -56 61 -62 87 -55
46 11 49 22 5 19 -25 -1 -39 2 -38 9 1 6 -6 10 -15 10 -10 -1 -16 2 -13 6 2 4
-5 16 -16 26 -12 11 -33 39 -48 64 -25 43 -26 50 -25 185 1 93 9 180 23 259
27 151 60 288 72 301 6 6 7 -4 2 -25 -5 -19 -8 -145 -7 -280 1 -310 23 -426
92 -503 10 -10 33 -48 53 -85 39 -72 69 -100 120 -111 31 -7 34 -10 31 -42 -1
-22 1 -29 6 -21 6 8 13 -42 18 -126 10 -162 14 -160 -79 -38 -59 78 -187 210
-195 202 -2 -3 15 -21 38 -42 23 -21 84 -91 136 -156 52 -64 99 -120 104 -123
6 -4 10 -22 10 -41 0 -19 5 -34 11 -34 7 0 9 16 5 48 -3 26 -10 111 -16 190
-5 78 -12 146 -14 151 -3 4 8 21 24 36 17 16 30 24 30 19 0 -6 22 -35 49 -65
l49 -55 -9 -115 c-4 -62 -12 -136 -17 -162 -7 -35 -6 -47 2 -44 13 4 32 109
41 229 7 94 12 99 55 60 14 -13 34 -28 45 -33 11 -6 3 4 -18 23 -45 40 -77 86
-77 112 0 18 3 17 28 -6 15 -14 46 -39 68 -54 23 -16 65 -49 93 -72 29 -25 51
-38 51 -30 0 7 -16 22 -35 32 -43 23 -78 69 -110 140 -25 56 -52 156 -53 191
0 11 -8 45 -17 75 -20 68 -33 300 -16 300 16 0 51 -37 51 -55 0 -21 65 -110
96 -130 14 -9 30 -27 36 -41 6 -14 17 -23 24 -20 7 3 18 -2 25 -10 10 -13 10
-17 -1 -24 -10 -6 -7 -14 13 -33 15 -13 27 -31 27 -39 0 -8 5 -19 12 -26 6 -6
8 -15 4 -19 -4 -4 -24 10 -45 32 -20 22 -43 40 -51 40 -7 0 -15 6 -18 14 -3
10 0 12 14 7 16 -6 15 -3 -4 14 -12 12 -25 35 -29 51 -3 15 -12 34 -19 40 -9
7 -5 -13 10 -57 18 -50 39 -85 78 -129 52 -58 55 -63 72 -158 18 -94 18 -99 0
-118 -18 -20 -17 -20 27 0 24 12 58 21 74 21 32 0 162 -57 152 -66 -3 -4 -27
6 -52 20 -25 15 -51 26 -58 23 -7 -2 4 -12 23 -22 l35 -19 -35 -10 c-49 -15
-60 -24 -60 -49 l0 -22 18 21 c19 22 63 44 91 44 10 0 30 -9 44 -20 36 -29 46
-6 13 29 -15 16 -51 41 -81 56 -43 21 -65 26 -107 23 l-52 -3 -18 85 c-21 104
-24 160 -6 142 20 -20 32 -13 13 8 -19 21 -16 52 9 85 15 19 15 18 16 -18 0
-59 45 -134 134 -223 44 -44 92 -88 105 -97 24 -16 24 -17 6 -37 -10 -11 -13
-20 -8 -20 6 0 16 7 23 15 9 10 17 12 23 6 5 -5 15 -7 22 -5 7 3 23 -8 37 -24
27 -33 28 -81 1 -103 -22 -19 -87 0 -91 27 -2 17 -15 23 -69 34 l-67 13 -23
-29 c-12 -16 -21 -33 -19 -39 4 -13 112 -8 138 6 41 22 30 -4 -27 -61 -63 -63
-88 -78 -108 -62 -7 6 -31 16 -55 23 -38 11 -43 16 -40 38 2 21 10 27 38 32
31 6 32 7 7 8 -15 0 -39 12 -52 25 -13 13 -27 21 -31 17 -4 -3 -4 -1 -1 5 4 6
0 31 -8 55 -17 51 -55 259 -55 301 0 22 -8 32 -37 47 -42 21 -78 57 -115 112
l-23 35 1 -40 c1 -23 4 -53 8 -69 3 -15 8 -39 11 -55 l5 -27 -15 25 c-8 14
-14 20 -15 14 0 -12 48 -124 53 -124 2 0 -2 28 -9 63 -8 34 -14 70 -14 80 0
26 38 21 85 -11 39 -27 39 -28 52 -122 12 -83 63 -317 93 -431 13 -46 31 -52
25 -8 -3 28 -2 30 18 24 12 -4 32 -9 45 -12 12 -3 22 -9 22 -14 0 -13 -44 -11
-58 3 -6 6 -14 9 -18 6 -3 -4 5 -13 18 -22 20 -13 30 -14 73 -2 28 7 66 20 86
29 40 16 62 10 57 -18 -2 -10 3 -20 10 -22 9 -3 12 11 12 52 l0 56 33 -3 c32
-3 32 -4 29 -49 -4 -51 3 -61 33 -48 11 4 14 8 8 8 -17 1 -17 71 -1 71 6 0 19
-6 27 -14 9 -8 54 -27 101 -43 l85 -29 18 36 c9 20 17 50 17 67 0 17 7 36 15
43 20 16 65 95 65 114 0 8 -12 24 -26 35 l-26 20 17 98 c9 54 18 112 21 130 3
18 14 39 26 47 26 18 36 13 18 -9 -10 -12 -10 -15 2 -15 7 0 34 20 58 45 55
56 76 46 35 -17 -16 -23 -28 -48 -28 -55 0 -7 -5 -13 -10 -13 -6 0 -8 -3 -4
-6 9 -9 93 43 112 68 14 21 15 21 15 3 0 -53 -120 -245 -175 -281 -41 -27 -21
-27 32 -1 26 14 64 41 82 61 42 43 50 45 42 8 -8 -38 -47 -84 -99 -117 -60
-39 -44 -44 28 -8 l60 30 0 -112 c0 -114 7 -175 19 -175 4 0 7 68 7 151 -1
140 0 151 19 161 11 7 46 36 78 67 48 45 56 50 48 28 -17 -45 -40 -196 -47
-307 l-6 -105 32 50 c39 59 144 197 213 278 27 32 48 60 45 62 -2 3 -21 -16
-42 -40 -20 -25 -41 -43 -46 -40 -4 2 -14 -3 -21 -12 -12 -14 -12 -16 0 -9 22
14 11 -3 -74 -116 -44 -59 -82 -103 -83 -97 -6 15 18 216 35 299 22 108 39
121 35 25 -4 -77 2 -125 16 -125 5 0 7 13 4 29 -5 38 10 85 63 196 52 108 119
305 139 412 8 43 18 129 21 191 4 62 10 110 13 107 9 -9 31 -246 31 -339 1
-86 -23 -185 -65 -269 -21 -41 -27 -46 -44 -37 -10 5 -25 10 -32 10 -7 -1 1
-7 17 -14 l30 -13 -32 -17 c-37 -19 -46 -33 -10 -16 13 7 5 -4 -18 -25 -33
-30 -35 -34 -12 -23 35 18 171 167 195 216 78 153 103 390 62 577 -35 160 -58
250 -59 232 -1 -10 10 -67 24 -126 52 -228 51 -425 -4 -589 -28 -83 -86 -190
-97 -179 -2 2 7 29 21 59 41 89 49 190 49 563 -1 324 -2 347 -28 490 -67 370
-161 622 -301 807 -75 99 -145 159 -257 218 -139 73 -197 90 -301 89 -50 -1
-103 -5 -117 -9z m129 -84 c71 -36 180 -158 230 -258 24 -47 32 -70 19 -53
-12 17 -52 61 -87 98 -52 54 -85 78 -164 118 -54 27 -105 49 -112 49 -7 0 -36
-15 -64 -34 -28 -19 -51 -30 -51 -24 0 14 74 84 114 109 40 25 57 24 115 -5z
m-72 -78 c47 -17 36 -31 -24 -32 -28 -1 -54 -4 -58 -8 -3 -3 -10 -28 -15 -55
l-8 -48 -1 62 c-1 58 1 63 27 77 33 19 38 19 79 4z m10 -56 c11 -9 44 -48 73
-87 70 -95 79 -101 41 -30 -18 33 -48 74 -67 91 -19 17 -34 34 -34 38 0 3 18
6 39 6 92 0 241 -164 327 -360 60 -138 77 -235 78 -465 0 -122 -4 -225 -12
-265 -22 -115 -24 -126 -14 -110 6 8 13 34 17 58 10 64 17 44 9 -27 -5 -45
-11 -61 -22 -61 -8 0 -21 -8 -28 -17 -12 -15 -13 -9 -6 47 4 36 7 98 7 138 0
39 4 72 9 72 5 0 3 6 -3 13 -14 18 -32 141 -35 242 -3 90 -36 187 -128 377
-50 104 -76 142 -41 62 9 -21 29 -79 44 -129 15 -49 28 -81 29 -70 4 67 67
-207 76 -330 4 -49 12 -96 18 -104 6 -8 -9 -4 -34 9 -25 13 -58 26 -75 29 -28
6 -30 10 -61 136 -37 154 -49 225 -36 225 4 0 19 -35 31 -77 13 -43 27 -89 31
-103 4 -14 16 -56 26 -95 23 -92 31 -66 9 33 -23 103 -172 528 -182 518 -2 -2
5 -35 16 -73 48 -162 93 -541 66 -550 -7 -2 -20 47 -33 119 -30 170 -36 227
-23 208 6 -8 11 -10 11 -4 0 18 -61 248 -67 254 -3 3 -3 -8 1 -25 32 -141 29
-554 -5 -576 -23 -15 -31 -10 -25 15 25 99 32 292 16 426 -5 43 -6 15 -3 -80
5 -145 -6 -252 -42 -400 -24 -102 -26 -116 -15 -100 5 8 17 38 25 66 12 42 29
64 49 64 11 0 -53 -271 -78 -331 -13 -32 -14 -21 -15 141 0 96 -6 233 -12 303
-6 71 -9 183 -7 250 4 114 3 119 -9 72 -8 -31 -13 -115 -13 -225 0 -176 -15
-467 -29 -550 -6 -40 -8 -32 -20 75 -11 105 -10 125 3 164 19 51 20 65 6 56
-5 -3 -10 -1 -10 4 0 6 3 11 8 11 4 0 6 61 4 135 -2 75 -7 133 -11 131 -4 -3
-13 -78 -20 -168 -6 -90 -16 -210 -21 -268 -6 -58 -10 -134 -10 -170 0 -36 -4
-60 -9 -55 -16 18 -51 225 -66 392 -9 92 -19 171 -23 175 -10 10 -2 -315 8
-327 9 -11 52 -176 47 -181 -11 -11 -71 130 -95 226 -73 282 -68 604 15 895
40 140 43 145 107 145 l53 0 6 -97 c4 -54 8 -197 8 -318 2 -229 3 -235 15 -70
5 55 10 89 12 75 2 -14 8 -29 13 -34 11 -12 12 22 2 90 -6 42 -8 45 -14 24 -5
-18 -7 -10 -8 30 -1 94 17 281 30 296 16 19 49 17 76 -4z m-372 -384 c-3 -40
-10 -164 -16 -276 -12 -197 -13 -203 -33 -200 -20 3 -21 8 -19 148 2 172 18
292 44 338 11 18 19 40 19 48 0 8 2 14 5 14 3 0 3 -33 0 -72z m992 -67 c6 -41
-11 -101 -28 -101 -5 0 -9 -5 -9 -11 0 -6 13 0 30 14 41 35 90 45 107 21 18
-25 17 -31 -11 -49 -20 -13 -29 -14 -46 -5 -11 6 -31 9 -43 7 -18 -3 -17 -5
11 -12 48 -11 70 -67 37 -95 -21 -17 -75 38 -75 77 l0 28 -18 -35 c-18 -36
-74 -76 -92 -65 -13 8 -13 52 0 60 6 3 8 18 5 33 -4 19 -3 22 3 9 7 -17 9 -17
21 -3 7 9 22 16 32 16 11 0 19 4 19 10 0 5 -13 7 -29 4 -23 -5 -35 -1 -56 20
-32 32 -28 49 11 57 39 7 52 1 70 -32 8 -16 19 -29 25 -29 6 0 1 16 -11 35
-18 29 -19 38 -9 57 31 60 47 57 56 -11z m103 -238 c0 -13 -10 -37 -22 -53
-12 -16 -21 -44 -21 -62 0 -18 -9 -45 -19 -60 -17 -24 -17 -28 -4 -28 14 0 16
-20 16 -144 0 -86 -6 -176 -15 -223 -15 -78 -60 -216 -91 -274 -8 -16 -13 -33
-10 -38 7 -11 -39 -222 -65 -301 -18 -51 -35 -77 -80 -123 -68 -67 -92 -74
-51 -14 48 70 82 151 87 209 5 63 19 105 44 133 10 11 28 38 40 60 l23 40 -24
-27 c-37 -42 -74 -109 -93 -165 -11 -37 -22 -53 -34 -53 -9 0 -31 -16 -50 -35
-36 -38 -31 -48 6 -13 13 12 25 19 28 16 8 -8 -30 -70 -41 -68 -16 2 -75 -51
-68 -61 3 -6 21 7 40 28 42 48 45 31 3 -20 -28 -34 -32 -36 -44 -21 -11 16
-15 15 -47 -9 -32 -25 -58 -34 -58 -22 0 3 14 27 30 53 29 48 40 76 21 57 -10
-11 -71 -123 -71 -130 0 -3 11 -3 24 1 20 5 24 2 21 -13 -2 -10 -11 -62 -20
-115 -16 -96 -24 -108 -53 -90 -10 7 -10 15 -2 38 7 16 14 71 16 122 5 105 36
186 78 202 13 5 34 24 47 42 20 28 20 31 4 18 -11 -8 -24 -21 -28 -27 -10 -17
-27 -17 -27 0 0 7 17 26 38 42 37 29 103 100 129 141 14 21 -21 -76 -39 -110
-6 -12 -31 -52 -55 -90 -24 -37 -42 -70 -40 -73 10 -9 47 52 108 175 57 114
69 130 113 160 26 17 51 32 55 32 10 0 48 95 60 150 15 65 33 278 40 471 6
162 7 167 31 188 l25 21 -31 -6 c-38 -7 -55 12 -60 68 l-4 41 23 -21 c12 -12
34 -33 48 -47 l27 -26 1 23 c2 28 9 111 11 118 3 13 30 -65 30 -87z m-156 -5
c4 -13 10 -81 13 -153 5 -90 9 -121 15 -100 4 18 5 -1 2 -45 -2 -41 -9 -92
-15 -113 -5 -21 -7 -48 -4 -60 5 -17 4 -19 -4 -7 -9 12 -11 10 -10 -10 1 -14
-1 -32 -5 -41 -4 -10 -3 -20 3 -24 15 -9 14 -183 -1 -226 -6 -19 -19 -44 -29
-57 -25 -32 -111 -102 -126 -102 -20 0 32 96 54 102 10 3 26 20 36 39 14 28
15 30 1 11 -18 -24 -44 -30 -44 -9 1 21 55 119 65 119 6 -1 11 -13 13 -27 2
-14 8 -25 13 -25 13 0 11 21 -6 53 -13 26 -13 32 5 67 24 46 25 57 6 41 -8 -6
-24 -35 -36 -64 -24 -56 -98 -167 -111 -167 -4 0 -2 15 6 34 14 32 37 130 50
208 4 23 12 39 24 43 10 3 27 15 37 27 20 23 3 17 -29 -10 -9 -8 -18 -13 -20
-11 -1 2 -1 115 1 251 l3 246 26 7 c14 3 27 4 29 3 8 -9 10 -103 3 -150 -14
-87 -19 -121 -24 -158 l-5 -35 10 30 c20 61 42 222 37 278 -5 57 5 77 17 35z
m-1029 -156 c-13 -13 -15 11 -8 84 l8 79 3 -79 c2 -43 0 -81 -3 -84z m589 83
c4 -27 10 -60 13 -72 4 -20 1 -23 -23 -24 l-29 -1 30 -7 c28 -6 30 -9 40 -84
l11 -77 -39 0 c-32 0 -38 3 -33 16 14 36 28 105 23 110 -6 6 -27 -61 -27 -87
0 -9 -10 -29 -22 -44 -21 -27 -21 -28 0 -16 24 13 112 15 112 2 0 -5 -19 -11
-42 -15 -32 -5 -39 -9 -28 -16 8 -5 10 -10 4 -10 -6 0 -33 -19 -59 -42 -44
-39 -48 -40 -41 -18 9 32 11 40 34 135 11 44 28 135 38 202 19 126 26 135 38
48z m-611 -18 c-4 -46 -10 -67 -19 -67 -7 0 -12 6 -9 13 2 6 9 38 15 70 15 76
21 68 13 -16z m687 16 c6 -32 14 -66 16 -75 3 -11 0 -18 -9 -18 -10 0 -16 17
-21 53 -12 107 -4 132 14 40z m579 18 c8 -5 11 -16 8 -25 -7 -18 -42 -22 -52
-6 -3 6 -12 10 -18 10 -7 -1 1 -11 17 -24 23 -19 27 -29 22 -50 -7 -30 -22
-33 -48 -9 -21 19 -25 82 -6 101 14 14 57 16 77 3z m-1104 -321 c15 -47 52
-132 83 -190 79 -149 79 -149 76 -87 -1 29 0 99 4 157 6 123 14 108 31 -60 21
-205 30 -172 51 190 6 102 12 196 14 210 4 53 18 -290 15 -382 -2 -53 -1 -94
3 -90 4 4 18 36 32 72 18 49 29 64 41 62 11 -2 14 1 10 8 -5 9 -1 10 16 5 15
-4 19 -3 11 3 -10 6 -8 13 8 27 23 21 39 13 20 -10 -11 -13 -9 -15 21 -13 29
3 34 0 37 -21 5 -33 -23 -54 -51 -39 -19 10 -20 8 -13 -43 4 -30 14 -64 22
-77 8 -12 12 -27 9 -32 -3 -5 11 -12 32 -15 21 -3 47 -8 58 -10 13 -2 27 5 38
21 19 25 8 34 -12 10 -9 -10 -24 -13 -49 -9 -55 8 -69 26 -70 86 -1 37 1 48 8
37 5 -8 10 -23 10 -33 0 -16 5 -17 33 -12 17 4 38 13 45 20 11 10 8 14 -18 23
-27 10 -30 14 -20 31 5 11 15 23 20 26 14 9 12 45 -2 50 -7 2 -26 9 -43 15
l-30 12 29 24 c54 47 127 9 132 -68 2 -24 6 -54 9 -68 l7 -25 -20 22 c-22 25
-42 14 -42 -23 0 -13 -4 -26 -10 -29 -13 -8 -13 -25 0 -25 6 0 15 11 20 25 5
14 16 25 25 25 19 0 20 -34 0 -50 -17 -14 -20 -30 -5 -30 15 0 40 55 46 103 4
28 1 55 -10 81 -11 27 -12 36 -3 33 22 -7 77 -88 77 -114 0 -26 0 -26 -22 -7
-23 20 -17 3 10 -28 14 -17 11 -79 -5 -127 -4 -11 -3 -13 5 -6 6 6 20 46 31
89 21 85 51 134 51 84 0 -15 -14 -80 -30 -145 -30 -117 -31 -119 -85 -170 -31
-29 -52 -53 -46 -53 5 0 44 33 86 72 89 84 90 79 15 -78 -40 -83 -60 -111
-107 -153 -79 -71 -171 -130 -318 -207 -148 -77 -109 -82 -355 45 -244 127
-300 188 -361 394 -12 40 -28 85 -36 101 -8 16 -17 38 -18 50 -2 12 -15 50
-30 84 -15 35 -25 66 -22 68 2 2 27 -1 55 -7 l51 -12 6 -56 c4 -31 10 -78 15
-104 l8 -49 -41 39 -41 38 46 -55 c25 -31 53 -71 61 -90 8 -19 22 -44 31 -55
9 -11 5 4 -9 37 -35 77 -70 279 -46 264 4 -3 6 11 4 32 -4 31 1 43 32 80 65
75 70 44 6 -38 l-35 -45 46 43 c50 48 81 52 86 12 5 -28 -20 -50 -48 -43 -19
5 -19 4 -4 -48 9 -30 27 -69 41 -87 22 -29 30 -33 57 -28 17 3 48 9 69 12 33
6 53 24 26 24 -5 0 -7 5 -4 10 9 14 5 13 -40 -10 -47 -24 -74 -25 -81 -5 -4 8
-13 15 -21 15 -8 0 -11 4 -8 10 3 5 1 19 -5 30 -6 12 -10 31 -8 43 3 20 5 19
23 -11 18 -30 43 -39 37 -13 -3 13 -4 13 36 2 30 -9 33 -7 48 21 14 28 14 31
-3 43 -21 16 -12 31 13 21 14 -5 16 -16 10 -68 -5 -50 -4 -60 6 -50 9 9 13 45
13 106 l0 92 31 -30 c17 -17 36 -40 42 -51 11 -20 11 -20 12 2 0 12 -12 36
-27 53 -14 18 -27 41 -28 53 -1 15 -13 24 -46 33 -24 8 -54 14 -66 14 -20 0
-23 5 -23 35 0 19 3 35 8 35 4 0 7 25 8 55 0 31 6 61 12 67 9 9 12 -7 14 -67
0 -44 1 -88 0 -97 -1 -12 5 -18 19 -18 11 0 30 -5 41 -11 20 -11 21 -9 14 22
-3 18 -9 63 -13 101 -5 58 -4 68 10 68 25 0 28 -12 32 -132 l4 -113 33 -18 33
-19 -27 26 -28 25 1 143 1 143 13 -85 c8 -47 26 -123 40 -170z m-130 153 c4
-32 11 -75 15 -96 7 -32 6 -37 -7 -33 -8 3 -18 6 -22 6 -10 0 -20 119 -14 154
9 43 21 29 28 -31z m1168 45 c36 -27 67 -621 38 -728 -7 -29 -9 -19 -10 60 -1
52 -13 160 -27 240 -17 100 -24 173 -22 235 1 50 -1 116 -6 148 -9 59 -4 67
27 45z m-533 -35 c0 -28 -3 -34 -10 -23 -13 20 -13 60 0 60 6 0 10 -17 10 -37z
m48 0 c17 -72 32 -157 28 -161 -3 -2 -18 4 -35 14 -31 18 -31 19 -31 101 0 66
3 83 15 83 8 0 18 -15 23 -37z m83 6 l49 -21 -1 -52 c0 -28 -4 -71 -8 -96 -6
-41 -5 -47 18 -67 14 -11 23 -25 19 -29 -4 -4 -31 15 -60 42 -55 51 -58 59
-82 207 -7 44 -3 45 65 16z m79 -142 c0 -86 -2 -99 -14 -87 -10 11 -12 38 -8
107 2 51 8 90 13 87 5 -3 9 -51 9 -107z m-866 -69 c23 -32 20 -75 -4 -88 -12
-6 -20 -21 -20 -36 0 -17 -8 -28 -26 -36 -37 -17 -47 4 -27 55 15 38 15 41 -2
53 -10 8 -27 14 -36 14 -26 0 -31 15 -11 33 37 32 105 35 126 5z m-349 -328
c18 -36 20 -64 3 -54 -7 4 -3 -4 8 -17 26 -29 57 -89 50 -96 -7 -8 -65 29 -71
46 -9 23 -19 151 -12 151 4 0 13 -13 22 -30z m-324 -274 c6 -44 18 -91 25
-105 8 -14 14 -33 14 -41 0 -8 18 -47 39 -87 l38 -71 -35 -7 c-19 -3 -37 -4
-40 -1 -3 3 -11 52 -18 108 l-13 103 3 -92 c4 -103 31 -177 82 -224 22 -19 20
-14 -9 25 -37 49 -44 66 -28 66 5 0 22 3 38 6 29 6 31 4 42 -39 15 -63 14 -74
-9 -80 -33 -8 -83 33 -112 93 -37 76 -48 174 -47 413 2 177 3 190 10 107 4
-52 13 -131 20 -174z m1579 -116 c0 -5 -7 -28 -16 -50 -11 -28 -22 -40 -36
-40 -19 0 -19 1 2 35 12 19 19 39 16 44 -4 5 0 12 6 14 21 8 28 8 28 -3z
m-243 -54 c-9 -13 -27 -26 -39 -28 -22 -3 -23 -7 -24 -105 -1 -56 -7 -130 -13
-165 l-12 -63 -37 3 c-28 2 -44 -3 -67 -23 l-30 -25 38 21 c34 20 43 21 94 10
56 -11 123 -45 123 -62 0 -13 -30 -11 -86 6 -58 17 -55 17 -73 6 -12 -7 -7
-20 23 -64 40 -61 54 -125 37 -169 -13 -34 -33 -29 -97 23 -64 53 -99 70 -52
25 24 -23 32 -36 22 -36 -21 0 -66 24 -86 47 -16 18 -16 20 10 45 30 28 73 40
79 22 2 -6 -11 -15 -29 -20 l-33 -8 43 -3 c24 -3 40 -8 37 -14 -4 -5 10 -2 29
8 20 9 36 22 36 29 0 6 -20 30 -44 52 -46 43 -46 52 3 67 17 5 20 9 11 15 -16
10 -61 -3 -105 -29 l-33 -19 -21 22 c-12 12 -21 25 -21 29 0 4 22 31 49 60 76
84 171 237 171 275 0 18 99 106 109 97 2 -3 -4 -15 -12 -29z m-685 -12 c30
-16 31 -17 13 -30 -27 -20 -32 -18 -44 16 -12 35 -10 35 31 14z m-195 -60
c-12 -13 -37 6 -37 28 l0 22 22 -21 c12 -13 19 -25 15 -29z m279 17 c5 -5 59
-34 119 -65 77 -40 118 -56 135 -52 14 2 67 30 118 61 52 31 96 54 99 51 17
-17 -69 -185 -131 -255 -23 -26 -51 -59 -62 -76 l-22 -29 -60 52 c-120 105
-166 162 -193 245 -24 73 -25 88 -3 68z m1153 -48 c-6 -21 -19 -49 -28 -62 -9
-14 -30 -59 -48 -100 -25 -59 -32 -69 -32 -46 1 45 19 94 69 183 46 82 61 91
39 25z m-1259 -46 c0 -14 -39 23 -52 48 -8 14 -2 12 21 -9 17 -17 31 -34 31
-39z m1024 -72 c-42 -84 -72 -120 -60 -72 6 27 88 156 95 151 2 -2 -14 -37
-35 -79z m-1438 -29 c-1 -5 -10 -14 -19 -20 -22 -14 -33 -1 -40 47 l-6 38 34
-28 c18 -15 32 -32 31 -37z m947 -241 c20 -18 37 -40 37 -46 0 -7 -13 0 -30
16 -30 29 -30 29 -65 12 l-36 -17 3 27 c3 26 18 41 43 42 6 1 27 -15 48 -34z
m181 3 c-16 -31 -52 -54 -64 -41 -4 4 -12 22 -18 39 l-10 32 53 -1 53 -1 -14
-28z m-465 -24 c48 -10 37 -24 -19 -24 -38 0 -50 4 -50 15 0 16 19 19 69 9z
m-209 -44 c7 -14 8 -26 1 -38 -8 -13 -10 -14 -11 -2 0 8 -3 25 -6 38 -8 27 2
29 16 2z m255 -59 c-8 -14 -65 -44 -72 -38 -2 3 12 17 33 31 37 25 52 28 39 7z"/>
<path d="M2005 2297 c2 -10 14 -48 25 -85 11 -37 29 -116 40 -177 17 -96 19
-101 14 -40 -7 89 -36 217 -64 275 -11 25 -18 37 -15 27z"/>
<path d="M1468 2210 c-7 -50 -7 -52 9 -42 7 4 8 21 4 47 l-7 40 -6 -45z"/>
<path d="M1390 2167 c0 -26 4 -47 9 -47 8 0 3 79 -5 89 -2 2 -4 -17 -4 -42z"/>
<path d="M1872 2160 c6 -23 13 -39 16 -36 7 8 -8 76 -17 76 -5 0 -4 -18 1 -40z"/>
<path d="M1983 1885 c0 -44 2 -61 4 -37 2 23 2 59 0 80 -2 20 -4 1 -4 -43z"/>
<path d="M1852 1254 c11 -11 23 -14 35 -9 17 7 17 8 -2 15 -11 5 -27 9 -35 9
-12 1 -11 -2 2 -15z"/>
<path d="M1961 1116 c-9 -10 -8 -15 3 -19 14 -5 36 10 36 25 0 13 -27 9 -39
-6z"/>
<path d="M1353 970 c-19 -8 -23 -17 -23 -50 0 -22 9 -58 19 -79 18 -35 92
-111 108 -111 4 0 -9 14 -30 31 -60 50 -93 129 -65 157 9 9 9 12 -1 12 -7 0
-9 5 -5 11 4 7 9 8 13 1 4 -7 25 -5 61 4 37 10 73 13 110 8 30 -3 72 -6 92 -6
20 1 40 -3 43 -7 3 -5 0 -31 -5 -58 -12 -54 -55 -114 -104 -144 -17 -10 -26
-19 -20 -19 5 0 28 13 50 29 46 34 90 108 100 169 6 39 5 42 -20 52 -33 12
-292 12 -323 0z"/>
<path d="M1752 123 c-36 -12 -41 -17 -31 -29 7 -8 15 -11 18 -7 3 4 18 14 34
22 15 8 27 18 27 23 0 4 -1 8 -2 7 -2 0 -22 -7 -46 -16z"/>
<path d="M1884 2681 c4 -6 13 -11 19 -11 7 0 23 -9 37 -20 14 -11 39 -20 57
-20 44 0 75 -13 119 -52 l38 -33 -44 58 c-26 35 -46 54 -50 47 -9 -15 -88 -5
-109 14 -21 19 -77 34 -67 17z"/>
<path d="M1355 2618 c-70 -25 -159 -108 -210 -193 -13 -23 -13 -25 -1 -10 47
58 104 106 159 136 77 40 127 79 100 78 -10 0 -31 -5 -48 -11z"/>
<path d="M767 2396 c-25 -35 -66 -103 -91 -152 -26 -49 -42 -82 -36 -74 17 24
121 192 142 230 11 19 25 41 30 48 6 6 8 12 5 12 -3 0 -26 -29 -50 -64z"/>
<path d="M1287 2438 c-120 -197 -236 -422 -223 -435 2 -2 9 10 16 27 7 16 16
30 21 30 5 0 9 7 9 15 0 8 4 15 8 15 4 0 14 17 21 38 14 43 73 163 78 159 1
-2 -4 -38 -12 -81 -8 -43 -15 -94 -14 -114 1 -24 7 -4 19 58 30 156 47 217 73
265 26 46 29 63 4 23z"/>
<path d="M2126 2403 c24 -24 50 -43 59 -43 9 0 13 5 10 10 -3 6 -14 10 -23 10
-9 0 -32 15 -52 33 -21 19 -18 14 6 -10z"/>
<path d="M810 2347 c-51 -65 -53 -67 -48 -67 8 0 90 101 86 106 -3 2 -20 -15
-38 -39z"/>
<path d="M996 2299 c-14 -11 -31 -30 -37 -42 -7 -14 4 -7 30 18 22 21 41 40
41 42 0 7 -8 2 -34 -18z"/>
<path d="M2169 2273 c10 -27 26 -64 34 -83 l16 -35 -6 35 c-6 34 -49 130 -58
130 -3 0 4 -21 14 -47z"/>
<path d="M1070 2243 c-36 -62 -80 -181 -73 -199 4 -12 3 -15 -5 -10 -7 4 -10
2 -7 -6 3 -8 -1 -46 -10 -86 -23 -112 -45 -307 -45 -406 0 -71 -4 -94 -17
-109 -16 -19 -17 -20 -1 -14 9 3 18 1 21 -6 2 -7 7 51 10 127 9 174 40 393 71
494 13 42 32 104 41 137 9 33 23 72 31 87 21 41 10 34 -16 -9z"/>
<path d="M734 2228 c-35 -37 -36 -39 -8 -20 35 24 59 50 52 57 -2 3 -22 -14
-44 -37z"/>
<path d="M969 2163 c-49 -65 -53 -74 -35 -67 9 3 16 11 16 18 0 7 3 7 8 -1 5
-8 17 6 35 42 15 30 23 55 19 55 -4 0 -24 -21 -43 -47z"/>
<path d="M772 2133 c-60 -103 -79 -144 -107 -227 -27 -80 -30 -101 -16 -92 5
4 17 32 27 64 9 31 20 62 24 67 4 6 11 21 15 35 12 39 56 131 83 173 14 20 22
40 19 43 -3 3 -23 -25 -45 -63z"/>
<path d="M918 2163 c-8 -10 -15 -29 -16 -42 -1 -29 2 -26 21 22 18 41 17 45
-5 20z"/>
<path d="M930 1959 c0 -2 -16 -50 -35 -106 -43 -128 -62 -271 -49 -368 l10
-70 8 124 c4 68 12 135 17 150 6 14 17 67 25 116 8 50 19 103 24 119 6 16 8
32 5 34 -3 3 -5 3 -5 1z"/>
<path d="M531 1901 c-11 -27 -21 -56 -21 -63 0 -7 11 14 25 46 13 33 23 61 21
63 -2 2 -13 -19 -25 -46z"/>
<path d="M940 1885 c-6 -31 -10 -59 -7 -61 2 -2 9 21 16 52 6 32 9 59 7 61 -2
3 -10 -21 -16 -52z"/>
<path d="M2561 506 c59 -41 137 -73 248 -101 57 -14 122 -35 143 -46 22 -11
42 -18 46 -15 9 10 -78 43 -183 71 -55 15 -138 45 -185 68 -105 52 -114 55
-69 23z"/>
<path d="M395 479 c-57 -28 -110 -45 -185 -59 -117 -22 -221 -51 -203 -57 7
-2 45 5 85 15 40 11 105 26 143 33 61 10 255 90 255 104 0 9 -16 4 -95 -36z"/>
<path d="M2468 457 c-20 -17 -53 -44 -74 -59 -20 -16 -33 -28 -27 -28 14 0 83
52 117 89 38 40 31 39 -16 -2z"/>
<path d="M2952 252 c-35 -66 -96 -241 -88 -250 12 -11 24 13 40 76 20 78 75
212 87 212 5 0 9 5 9 10 0 25 -20 5 -48 -48z"/>
<path d="M42 251 c48 -53 83 -143 83 -213 0 -21 3 -38 7 -38 16 0 7 86 -15
147 -21 60 -87 153 -108 153 -6 0 9 -22 33 -49z"/>
<path d="M1214 280 c-32 -13 -39 -30 -12 -30 16 0 28 -10 38 -32 8 -18 22 -34
30 -36 12 -4 11 -1 -2 15 -26 28 -22 40 15 53 24 8 29 13 17 19 -27 15 -65 19
-86 11z"/>
<path d="M1533 230 c-35 -21 -46 -45 -15 -32 27 11 62 36 62 44 0 13 -13 9
-47 -12z"/>
<path d="M2974 208 c-6 -13 -9 -30 -9 -38 1 -8 3 -33 5 -55 2 -29 5 -20 10 35
3 41 5 76 5 78 -1 1 -6 -8 -11 -20z"/>
<path d="M1950 208 c0 -7 -16 -33 -35 -56 -36 -45 -51 -79 -41 -89 3 -4 6 0 6
8 0 9 20 39 45 67 26 31 42 59 38 67 -6 18 -13 19 -13 3z"/>
</g>
</svg>
